<mxfile host="app.diagrams.net" agent="Mozilla/5.0 (Windows NT 10.0; Win64; x64) AppleWebKit/537.36 (KHTML, like Gecko) Chrome/133.0.0.0 Safari/537.36" version="26.0.16">
  <diagram name="PÃ¡gina-1" id="KxnsqElue_293YBP5g9A">
    <mxGraphModel dx="1434" dy="728" grid="1" gridSize="10" guides="1" tooltips="1" connect="1" arrows="1" fold="1" page="1" pageScale="1" pageWidth="827" pageHeight="1169" math="0" shadow="0">
      <root>
        <mxCell id="0" />
        <mxCell id="1" parent="0" />
        <mxCell id="lkCGM3WwdxfAOzGKJ_4i-1" value="EMPLEADO&amp;nbsp;&lt;div&gt;INVENTARIO&lt;/div&gt;" style="shape=umlActor;verticalLabelPosition=bottom;verticalAlign=top;html=1;outlineConnect=0;fillColor=#e1d5e7;strokeColor=#9673a6;" parent="1" vertex="1">
          <mxGeometry x="760" y="340" width="30" height="60" as="geometry" />
        </mxCell>
        <mxCell id="lkCGM3WwdxfAOzGKJ_4i-2" value="EMPLEADO&lt;div&gt;&amp;nbsp;MOSTRADOR&lt;/div&gt;" style="shape=umlActor;verticalLabelPosition=bottom;verticalAlign=top;html=1;outlineConnect=0;fillColor=#e1d5e7;strokeColor=#9673a6;" parent="1" vertex="1">
          <mxGeometry x="40" y="340" width="30" height="60" as="geometry" />
        </mxCell>
        <mxCell id="lkCGM3WwdxfAOzGKJ_4i-3" value="" style="swimlane;startSize=0;fillColor=#d5e8d4;strokeColor=#82b366;" parent="1" vertex="1">
          <mxGeometry x="120" y="80" width="600" height="600" as="geometry" />
        </mxCell>
        <mxCell id="lkCGM3WwdxfAOzGKJ_4i-4" value="" style="ellipse;whiteSpace=wrap;html=1;fillColor=#ffe6cc;strokeColor=#d79b00;" parent="lkCGM3WwdxfAOzGKJ_4i-3" vertex="1">
          <mxGeometry x="480" y="260" width="90" height="40" as="geometry" />
        </mxCell>
        <mxCell id="lkCGM3WwdxfAOzGKJ_4i-7" value="" style="ellipse;whiteSpace=wrap;html=1;fillColor=#fff2cc;strokeColor=#d6b656;" parent="lkCGM3WwdxfAOzGKJ_4i-3" vertex="1">
          <mxGeometry x="445" y="40" width="90" height="40" as="geometry" />
        </mxCell>
        <mxCell id="lkCGM3WwdxfAOzGKJ_4i-8" value="ASEGURARSE DE&amp;nbsp;&lt;div&gt;LA DISPONIBILIDAD&lt;/div&gt;" style="text;html=1;align=center;verticalAlign=middle;resizable=0;points=[];autosize=1;strokeColor=none;fillColor=none;" parent="lkCGM3WwdxfAOzGKJ_4i-3" vertex="1">
          <mxGeometry x="420" y="80" width="140" height="40" as="geometry" />
        </mxCell>
        <mxCell id="lkCGM3WwdxfAOzGKJ_4i-10" value="" style="ellipse;whiteSpace=wrap;html=1;fillColor=#ffe6cc;strokeColor=#d79b00;" parent="lkCGM3WwdxfAOzGKJ_4i-3" vertex="1">
          <mxGeometry x="50" y="240" width="90" height="40" as="geometry" />
        </mxCell>
        <mxCell id="lkCGM3WwdxfAOzGKJ_4i-13" value="PRESTAMO DE&amp;nbsp;&lt;div&gt;PELICULA&lt;/div&gt;" style="text;html=1;align=center;verticalAlign=middle;resizable=0;points=[];autosize=1;strokeColor=none;fillColor=none;" parent="lkCGM3WwdxfAOzGKJ_4i-3" vertex="1">
          <mxGeometry x="45" y="303" width="110" height="40" as="geometry" />
        </mxCell>
        <mxCell id="lkCGM3WwdxfAOzGKJ_4i-15" value="" style="ellipse;whiteSpace=wrap;html=1;fillColor=#ffe6cc;strokeColor=#d79b00;" parent="lkCGM3WwdxfAOzGKJ_4i-3" vertex="1">
          <mxGeometry x="50" y="380" width="90" height="40" as="geometry" />
        </mxCell>
        <mxCell id="lkCGM3WwdxfAOzGKJ_4i-16" value="DEVOLUCION" style="text;html=1;align=center;verticalAlign=middle;resizable=0;points=[];autosize=1;strokeColor=none;fillColor=none;" parent="lkCGM3WwdxfAOzGKJ_4i-3" vertex="1">
          <mxGeometry x="50" y="425" width="100" height="30" as="geometry" />
        </mxCell>
        <mxCell id="lkCGM3WwdxfAOzGKJ_4i-20" value="" style="endArrow=none;html=1;rounded=0;fillColor=#d5e8d4;strokeColor=#82b366;" parent="lkCGM3WwdxfAOzGKJ_4i-3" target="lkCGM3WwdxfAOzGKJ_4i-4" edge="1">
          <mxGeometry width="50" height="50" relative="1" as="geometry">
            <mxPoint x="380" y="220" as="sourcePoint" />
            <mxPoint x="340" y="210" as="targetPoint" />
          </mxGeometry>
        </mxCell>
        <mxCell id="lkCGM3WwdxfAOzGKJ_4i-21" value="" style="endArrow=none;html=1;rounded=0;fillColor=#d5e8d4;strokeColor=#82b366;" parent="lkCGM3WwdxfAOzGKJ_4i-3" target="lkCGM3WwdxfAOzGKJ_4i-4" edge="1">
          <mxGeometry width="50" height="50" relative="1" as="geometry">
            <mxPoint x="390" y="290" as="sourcePoint" />
            <mxPoint x="360" y="270" as="targetPoint" />
          </mxGeometry>
        </mxCell>
        <mxCell id="lkCGM3WwdxfAOzGKJ_4i-25" value="REMOVE" style="text;html=1;align=center;verticalAlign=middle;resizable=0;points=[];autosize=1;strokeColor=none;fillColor=none;" parent="lkCGM3WwdxfAOzGKJ_4i-3" vertex="1">
          <mxGeometry x="320" y="300" width="80" height="30" as="geometry" />
        </mxCell>
        <mxCell id="lkCGM3WwdxfAOzGKJ_4i-22" value="ADD" style="text;html=1;align=center;verticalAlign=middle;resizable=0;points=[];autosize=1;strokeColor=none;fillColor=none;" parent="lkCGM3WwdxfAOzGKJ_4i-3" vertex="1">
          <mxGeometry x="335" y="210" width="50" height="30" as="geometry" />
        </mxCell>
        <mxCell id="lkCGM3WwdxfAOzGKJ_4i-31" value="" style="ellipse;whiteSpace=wrap;html=1;fillColor=#fff2cc;strokeColor=#d6b656;" parent="lkCGM3WwdxfAOzGKJ_4i-3" vertex="1">
          <mxGeometry x="310" y="170" width="90" height="40" as="geometry" />
        </mxCell>
        <mxCell id="lkCGM3WwdxfAOzGKJ_4i-32" value="" style="ellipse;whiteSpace=wrap;html=1;fillColor=#fff2cc;strokeColor=#d6b656;" parent="lkCGM3WwdxfAOzGKJ_4i-3" vertex="1">
          <mxGeometry x="294" y="260" width="90" height="40" as="geometry" />
        </mxCell>
        <mxCell id="lkCGM3WwdxfAOzGKJ_4i-33" value="" style="endArrow=none;html=1;rounded=0;fillColor=#d5e8d4;strokeColor=#82b366;" parent="lkCGM3WwdxfAOzGKJ_4i-3" edge="1">
          <mxGeometry width="50" height="50" relative="1" as="geometry">
            <mxPoint x="440" y="340" as="sourcePoint" />
            <mxPoint x="490" y="290" as="targetPoint" />
          </mxGeometry>
        </mxCell>
        <mxCell id="lkCGM3WwdxfAOzGKJ_4i-35" value="" style="ellipse;whiteSpace=wrap;html=1;fillColor=#fff2cc;strokeColor=#d6b656;" parent="lkCGM3WwdxfAOzGKJ_4i-3" vertex="1">
          <mxGeometry x="350" y="330" width="90" height="40" as="geometry" />
        </mxCell>
        <mxCell id="lkCGM3WwdxfAOzGKJ_4i-51" value="" style="endArrow=classic;html=1;rounded=0;fillColor=#d5e8d4;strokeColor=#82b366;entryX=0;entryY=1;entryDx=0;entryDy=0;" parent="lkCGM3WwdxfAOzGKJ_4i-3" edge="1" target="lkCGM3WwdxfAOzGKJ_4i-10">
          <mxGeometry width="50" height="50" relative="1" as="geometry">
            <mxPoint x="-19.760000000000005" y="309.22" as="sourcePoint" />
            <mxPoint x="50.000011862580095" y="336.78235712796936" as="targetPoint" />
            <Array as="points" />
          </mxGeometry>
        </mxCell>
        <mxCell id="lkCGM3WwdxfAOzGKJ_4i-5" value="MONTO DE&amp;nbsp;&lt;div&gt;TITULOS&lt;/div&gt;" style="text;html=1;align=center;verticalAlign=middle;resizable=0;points=[];autosize=1;strokeColor=none;fillColor=none;" parent="lkCGM3WwdxfAOzGKJ_4i-3" vertex="1">
          <mxGeometry x="480" y="303" width="90" height="40" as="geometry" />
        </mxCell>
        <mxCell id="lkCGM3WwdxfAOzGKJ_4i-55" value="" style="ellipse;whiteSpace=wrap;html=1;fillColor=#ffe6cc;strokeColor=#d79b00;" parent="lkCGM3WwdxfAOzGKJ_4i-3" vertex="1">
          <mxGeometry x="55" y="485" width="90" height="40" as="geometry" />
        </mxCell>
        <mxCell id="p_1Ra2Rw0H--HfCNnFRR-1" value="CANCELACION DEL&lt;div&gt;&amp;nbsp;SERVICIO&lt;/div&gt;" style="text;html=1;align=center;verticalAlign=middle;resizable=0;points=[];autosize=1;strokeColor=none;fillColor=none;" vertex="1" parent="lkCGM3WwdxfAOzGKJ_4i-3">
          <mxGeometry x="30" y="525" width="140" height="40" as="geometry" />
        </mxCell>
        <mxCell id="p_1Ra2Rw0H--HfCNnFRR-3" value="" style="ellipse;whiteSpace=wrap;html=1;fillColor=#fff2cc;strokeColor=#d6b656;" vertex="1" parent="lkCGM3WwdxfAOzGKJ_4i-3">
          <mxGeometry x="460" y="420" width="90" height="40" as="geometry" />
        </mxCell>
        <mxCell id="p_1Ra2Rw0H--HfCNnFRR-4" value="ACTUALIZAR SISTEMA&amp;nbsp;&lt;div&gt;DE DISPONIBILIDAD&lt;/div&gt;" style="text;html=1;align=center;verticalAlign=middle;resizable=0;points=[];autosize=1;strokeColor=none;fillColor=none;" vertex="1" parent="lkCGM3WwdxfAOzGKJ_4i-3">
          <mxGeometry x="425" y="460" width="160" height="40" as="geometry" />
        </mxCell>
        <mxCell id="p_1Ra2Rw0H--HfCNnFRR-5" value="" style="endArrow=classic;html=1;rounded=0;fillColor=#d5e8d4;strokeColor=#82b366;" edge="1" parent="lkCGM3WwdxfAOzGKJ_4i-3">
          <mxGeometry width="50" height="50" relative="1" as="geometry">
            <mxPoint x="630" y="290" as="sourcePoint" />
            <mxPoint x="510" y="410" as="targetPoint" />
          </mxGeometry>
        </mxCell>
        <mxCell id="p_1Ra2Rw0H--HfCNnFRR-6" value="" style="ellipse;whiteSpace=wrap;html=1;fillColor=#ffe6cc;strokeColor=#d79b00;" vertex="1" parent="lkCGM3WwdxfAOzGKJ_4i-3">
          <mxGeometry x="70" y="30" width="90" height="40" as="geometry" />
        </mxCell>
        <mxCell id="p_1Ra2Rw0H--HfCNnFRR-7" value="" style="ellipse;whiteSpace=wrap;html=1;fillColor=#ffe6cc;strokeColor=#d79b00;" vertex="1" parent="lkCGM3WwdxfAOzGKJ_4i-3">
          <mxGeometry x="70" y="140" width="90" height="40" as="geometry" />
        </mxCell>
        <mxCell id="p_1Ra2Rw0H--HfCNnFRR-11" value="" style="endArrow=classic;html=1;rounded=0;fillColor=#d5e8d4;strokeColor=#82b366;entryX=0;entryY=0.5;entryDx=0;entryDy=0;" edge="1" parent="lkCGM3WwdxfAOzGKJ_4i-3" target="p_1Ra2Rw0H--HfCNnFRR-6">
          <mxGeometry width="50" height="50" relative="1" as="geometry">
            <mxPoint x="-40" y="280" as="sourcePoint" />
            <mxPoint x="59.56770117439714" y="158.7871463963861" as="targetPoint" />
          </mxGeometry>
        </mxCell>
        <mxCell id="p_1Ra2Rw0H--HfCNnFRR-13" value="TOMAR DATOS&lt;div&gt;&amp;nbsp;DEL CLIENTE&lt;/div&gt;" style="text;html=1;align=center;verticalAlign=middle;resizable=0;points=[];autosize=1;strokeColor=none;fillColor=none;" vertex="1" parent="lkCGM3WwdxfAOzGKJ_4i-3">
          <mxGeometry x="60" y="80" width="110" height="40" as="geometry" />
        </mxCell>
        <mxCell id="lkCGM3WwdxfAOzGKJ_4i-36" value="UPD" style="text;html=1;align=center;verticalAlign=middle;resizable=0;points=[];autosize=1;strokeColor=none;fillColor=none;" parent="1" vertex="1">
          <mxGeometry x="495" y="448" width="50" height="30" as="geometry" />
        </mxCell>
        <mxCell id="lkCGM3WwdxfAOzGKJ_4i-37" value="" style="endArrow=classic;html=1;rounded=0;entryX=0.592;entryY=1.067;entryDx=0;entryDy=0;entryPerimeter=0;fillColor=#d5e8d4;strokeColor=#82b366;" parent="1" target="lkCGM3WwdxfAOzGKJ_4i-8" edge="1">
          <mxGeometry width="50" height="50" relative="1" as="geometry">
            <mxPoint x="750" y="370" as="sourcePoint" />
            <mxPoint x="800" y="320" as="targetPoint" />
          </mxGeometry>
        </mxCell>
        <mxCell id="lkCGM3WwdxfAOzGKJ_4i-42" value="CLIENTE" style="shape=umlActor;verticalLabelPosition=bottom;verticalAlign=top;html=1;outlineConnect=0;fillColor=#dae8fc;strokeColor=#6c8ebf;" parent="1" vertex="1">
          <mxGeometry x="50" y="60" width="30" height="60" as="geometry" />
        </mxCell>
        <mxCell id="lkCGM3WwdxfAOzGKJ_4i-46" value="" style="endArrow=classic;html=1;rounded=0;fillColor=#d5e8d4;strokeColor=#82b366;" parent="1" edge="1">
          <mxGeometry width="50" height="50" relative="1" as="geometry">
            <mxPoint x="60" y="150" as="sourcePoint" />
            <mxPoint x="60" y="310" as="targetPoint" />
          </mxGeometry>
        </mxCell>
        <mxCell id="lkCGM3WwdxfAOzGKJ_4i-47" value="" style="endArrow=classic;html=1;rounded=0;fillColor=#d5e8d4;strokeColor=#82b366;entryX=0.011;entryY=0.7;entryDx=0;entryDy=0;entryPerimeter=0;" parent="1" edge="1" target="p_1Ra2Rw0H--HfCNnFRR-7">
          <mxGeometry width="50" height="50" relative="1" as="geometry">
            <mxPoint x="90" y="370" as="sourcePoint" />
            <mxPoint x="140" y="320" as="targetPoint" />
          </mxGeometry>
        </mxCell>
        <mxCell id="lkCGM3WwdxfAOzGKJ_4i-52" value="" style="endArrow=classic;html=1;rounded=0;entryX=1;entryY=0.5;entryDx=0;entryDy=0;fillColor=#d5e8d4;strokeColor=#82b366;" parent="1" target="lkCGM3WwdxfAOzGKJ_4i-4" edge="1">
          <mxGeometry width="50" height="50" relative="1" as="geometry">
            <mxPoint x="750" y="370" as="sourcePoint" />
            <mxPoint x="800" y="340" as="targetPoint" />
          </mxGeometry>
        </mxCell>
        <mxCell id="lkCGM3WwdxfAOzGKJ_4i-53" value="PRESTAMO DE PELIICULA" style="text;html=1;align=center;verticalAlign=middle;resizable=0;points=[];autosize=1;strokeColor=none;fillColor=none;" parent="1" vertex="1">
          <mxGeometry x="320" y="50" width="170" height="30" as="geometry" />
        </mxCell>
        <mxCell id="p_1Ra2Rw0H--HfCNnFRR-2" value="" style="endArrow=classic;html=1;rounded=0;fillColor=#d5e8d4;strokeColor=#82b366;entryX=0;entryY=0;entryDx=0;entryDy=0;" edge="1" parent="1" target="lkCGM3WwdxfAOzGKJ_4i-55">
          <mxGeometry width="50" height="50" relative="1" as="geometry">
            <mxPoint x="100" y="430" as="sourcePoint" />
            <mxPoint x="160" y="480" as="targetPoint" />
          </mxGeometry>
        </mxCell>
        <mxCell id="p_1Ra2Rw0H--HfCNnFRR-12" value="COBRAR" style="text;html=1;align=center;verticalAlign=middle;resizable=0;points=[];autosize=1;strokeColor=none;fillColor=none;" vertex="1" parent="1">
          <mxGeometry x="195" y="258" width="70" height="30" as="geometry" />
        </mxCell>
        <mxCell id="p_1Ra2Rw0H--HfCNnFRR-14" value="" style="endArrow=classic;html=1;rounded=0;fillColor=#d5e8d4;strokeColor=#82b366;" edge="1" parent="1" target="lkCGM3WwdxfAOzGKJ_4i-15">
          <mxGeometry width="50" height="50" relative="1" as="geometry">
            <mxPoint x="100" y="417.03" as="sourcePoint" />
            <mxPoint x="170" y="400" as="targetPoint" />
            <Array as="points">
              <mxPoint x="100" y="417.03" />
            </Array>
          </mxGeometry>
        </mxCell>
      </root>
    </mxGraphModel>
  </diagram>
</mxfile>
